<?xml version="1.0" ?><!DOCTYPE svg  PUBLIC '-//W3C//DTD SVG 1.1//EN'  'http://www.w3.org/Graphics/SVG/1.1/DTD/svg11.dtd'><svg width="32" height="56" viewBox="0 0 32 56" xmlns="http://www.w3.org/2000/svg" xmlns:xlink="http://www.w3.org/1999/xlink"><view id="add" viewBox="0 0 32 32"/><svg height="32" width="32" viewBox="0 0 32 32" id="add-" xmlns="http://www.w3.org/2000/svg"><path d="M28 14H18V4a2 2 0 00-4 0v10H4a2 2 0 000 4h10v10a2 2 0 004 0V18h10a2 2 0 000-4z"/></svg><view id="cart" viewBox="0 32 24 24"/><svg fill="none" height="24" stroke="currentColor" stroke-linecap="round" stroke-linejoin="round" stroke-width="2" width="24" viewBox="0 0 24 24" id="cart-" y="32" xmlns="http://www.w3.org/2000/svg"><circle cx="9" cy="21" r="1"/><circle cx="20" cy="21" r="1"/><path d="M1 1h4l2.68 13.39a2 2 0 002 1.61h9.72a2 2 0 002-1.61L23 6H6"/></svg></svg>