<?xml version="1.0" ?><!DOCTYPE svg  PUBLIC '-//W3C//DTD SVG 1.1//EN'  'http://www.w3.org/Graphics/SVG/1.1/DTD/svg11.dtd'><svg viewBox="0 0 512 512" xmlns="http://www.w3.org/2000/svg" xmlns:xlink="http://www.w3.org/1999/xlink"><style>:root>svg{display:none}:root>svg:target{display:block}</style><svg viewBox="0 0 32 32" id="add" xmlns="http://www.w3.org/2000/svg"><path d="M28 14H18V4a2 2 0 00-4 0v10H4a2 2 0 000 4h10v10a2 2 0 004 0V18h10a2 2 0 000-4z"/></svg><svg fill="none" stroke="currentColor" stroke-linecap="round" stroke-linejoin="round" stroke-width="2" viewBox="0 0 24 24" id="cart" xmlns="http://www.w3.org/2000/svg"><circle cx="9" cy="21" r="1"/><circle cx="20" cy="21" r="1"/><path d="M1 1h4l2.68 13.39a2 2 0 002 1.61h9.72a2 2 0 002-1.61L23 6H6"/></svg><svg viewBox="0 0 512 512" id="close" xmlns="http://www.w3.org/2000/svg"><path d="M443.6 387.1L312.4 255.4l131.5-130c5.4-5.4 5.4-14.2 0-19.6l-37.4-37.6c-2.6-2.6-6.1-4-9.8-4-3.7 0-7.2 1.5-9.8 4L256 197.8 124.9 68.3c-2.6-2.6-6.1-4-9.8-4-3.7 0-7.2 1.5-9.8 4L68 105.9c-5.4 5.4-5.4 14.2 0 19.6l131.5 130L68.4 387.1c-2.6 2.6-4.1 6.1-4.1 9.8 0 3.7 1.4 7.2 4.1 9.8l37.4 37.6c2.7 2.7 6.2 4.1 9.8 4.1 3.5 0 7.1-1.3 9.8-4.1L256 313.1l130.7 131.1c2.7 2.7 6.2 4.1 9.8 4.1 3.5 0 7.1-1.3 9.8-4.1l37.4-37.6c2.6-2.6 4.1-6.1 4.1-9.8-.1-3.6-1.6-7.1-4.2-9.7z"/></svg></svg>